<mxfile host="Electron" modified="2024-02-17T10:38:52.145Z" agent="Mozilla/5.0 (Windows NT 10.0; Win64; x64) AppleWebKit/537.36 (KHTML, like Gecko) draw.io/23.1.5 Chrome/120.0.6099.109 Electron/28.1.0 Safari/537.36" etag="H2Ril4RCuVml7fAGzQs4" version="23.1.5" type="device">
  <diagram name="Pagina-1" id="1_2qyeEa1JzteLKZRhaf">
    <mxGraphModel dx="2167" dy="1967" grid="1" gridSize="10" guides="1" tooltips="1" connect="1" arrows="1" fold="1" page="1" pageScale="1" pageWidth="827" pageHeight="1169" math="0" shadow="0">
      <root>
        <mxCell id="0" />
        <mxCell id="1" parent="0" />
        <mxCell id="QnXVqV6WdRgewJ8nTJ-i-211" value="" style="rounded=0;whiteSpace=wrap;html=1;fontSize=12;" parent="1" vertex="1">
          <mxGeometry x="350" y="-470" width="690" height="420" as="geometry" />
        </mxCell>
        <mxCell id="6dSnEPWLA5yRJOX2oWhd-26" value="" style="rounded=0;whiteSpace=wrap;html=1;" parent="1" vertex="1">
          <mxGeometry x="380" y="-395" width="630" height="310" as="geometry" />
        </mxCell>
        <mxCell id="QnXVqV6WdRgewJ8nTJ-i-101" value="Iliadbox&lt;br style=&quot;font-size: 12px;&quot;&gt;Port Forwarding&lt;br&gt;&lt;br&gt;&lt;br&gt;" style="rounded=0;whiteSpace=wrap;html=1;fontSize=12;" parent="1" vertex="1">
          <mxGeometry x="760" y="810" width="170" height="90" as="geometry" />
        </mxCell>
        <mxCell id="6dSnEPWLA5yRJOX2oWhd-8" value="" style="rounded=0;whiteSpace=wrap;html=1;fontSize=12;" parent="1" vertex="1">
          <mxGeometry x="760" y="1070" width="170" height="75.5" as="geometry" />
        </mxCell>
        <mxCell id="QnXVqV6WdRgewJ8nTJ-i-100" value="" style="rounded=0;whiteSpace=wrap;html=1;fontSize=12;" parent="1" vertex="1">
          <mxGeometry x="760" y="954.5" width="170" height="75.5" as="geometry" />
        </mxCell>
        <mxCell id="QnXVqV6WdRgewJ8nTJ-i-34" value="s" style="rounded=0;whiteSpace=wrap;html=1;fontSize=12;" parent="1" vertex="1">
          <mxGeometry x="350" y="50" width="1050" height="690" as="geometry" />
        </mxCell>
        <mxCell id="QnXVqV6WdRgewJ8nTJ-i-8" value="a" style="rounded=0;whiteSpace=wrap;html=1;fontSize=12;" parent="1" vertex="1">
          <mxGeometry x="380" y="140" width="990" height="580" as="geometry" />
        </mxCell>
        <mxCell id="QnXVqV6WdRgewJ8nTJ-i-26" style="edgeStyle=orthogonalEdgeStyle;rounded=0;orthogonalLoop=1;jettySize=auto;html=1;entryX=0;entryY=0.5;entryDx=0;entryDy=0;fontSize=12;" parent="1" source="QnXVqV6WdRgewJ8nTJ-i-1" target="QnXVqV6WdRgewJ8nTJ-i-5" edge="1">
          <mxGeometry relative="1" as="geometry" />
        </mxCell>
        <mxCell id="QnXVqV6WdRgewJ8nTJ-i-1" value="activastick-0&lt;br style=&quot;font-size: 12px;&quot;&gt;192.168.1.20" style="rounded=0;whiteSpace=wrap;html=1;fontSize=12;" parent="1" vertex="1">
          <mxGeometry x="80" y="122.5" width="140" height="60" as="geometry" />
        </mxCell>
        <mxCell id="QnXVqV6WdRgewJ8nTJ-i-27" style="edgeStyle=orthogonalEdgeStyle;rounded=0;orthogonalLoop=1;jettySize=auto;html=1;entryX=0;entryY=0.5;entryDx=0;entryDy=0;fontSize=12;" parent="1" source="QnXVqV6WdRgewJ8nTJ-i-2" target="QnXVqV6WdRgewJ8nTJ-i-5" edge="1">
          <mxGeometry relative="1" as="geometry" />
        </mxCell>
        <mxCell id="QnXVqV6WdRgewJ8nTJ-i-2" value="activastick-3&lt;br style=&quot;border-color: var(--border-color); font-size: 12px;&quot;&gt;192.168.1.23" style="rounded=0;whiteSpace=wrap;html=1;fontSize=12;" parent="1" vertex="1">
          <mxGeometry x="80" y="332.5" width="140" height="60" as="geometry" />
        </mxCell>
        <mxCell id="QnXVqV6WdRgewJ8nTJ-i-24" style="edgeStyle=orthogonalEdgeStyle;rounded=0;orthogonalLoop=1;jettySize=auto;html=1;entryX=0;entryY=0.5;entryDx=0;entryDy=0;fontSize=12;" parent="1" source="QnXVqV6WdRgewJ8nTJ-i-3" target="QnXVqV6WdRgewJ8nTJ-i-5" edge="1">
          <mxGeometry relative="1" as="geometry" />
        </mxCell>
        <mxCell id="QnXVqV6WdRgewJ8nTJ-i-3" value="activastick-1&lt;br style=&quot;border-color: var(--border-color); font-size: 12px;&quot;&gt;192.168.1.21" style="rounded=0;whiteSpace=wrap;html=1;fontSize=12;" parent="1" vertex="1">
          <mxGeometry x="80" y="192.5" width="140" height="60" as="geometry" />
        </mxCell>
        <mxCell id="QnXVqV6WdRgewJ8nTJ-i-23" style="edgeStyle=orthogonalEdgeStyle;rounded=0;orthogonalLoop=1;jettySize=auto;html=1;entryX=0;entryY=0.5;entryDx=0;entryDy=0;fontSize=12;" parent="1" source="QnXVqV6WdRgewJ8nTJ-i-4" target="QnXVqV6WdRgewJ8nTJ-i-5" edge="1">
          <mxGeometry relative="1" as="geometry" />
        </mxCell>
        <mxCell id="QnXVqV6WdRgewJ8nTJ-i-4" value="activastick-1&lt;br style=&quot;border-color: var(--border-color); font-size: 12px;&quot;&gt;192.168.1.22" style="rounded=0;whiteSpace=wrap;html=1;fontSize=12;" parent="1" vertex="1">
          <mxGeometry x="80" y="262.5" width="140" height="60" as="geometry" />
        </mxCell>
        <mxCell id="QnXVqV6WdRgewJ8nTJ-i-28" style="edgeStyle=orthogonalEdgeStyle;rounded=0;orthogonalLoop=1;jettySize=auto;html=1;entryX=1;entryY=0.5;entryDx=0;entryDy=0;fontSize=12;" parent="1" source="QnXVqV6WdRgewJ8nTJ-i-5" target="QnXVqV6WdRgewJ8nTJ-i-1" edge="1">
          <mxGeometry relative="1" as="geometry" />
        </mxCell>
        <mxCell id="QnXVqV6WdRgewJ8nTJ-i-29" style="edgeStyle=orthogonalEdgeStyle;rounded=0;orthogonalLoop=1;jettySize=auto;html=1;entryX=1;entryY=0.5;entryDx=0;entryDy=0;fontSize=12;" parent="1" source="QnXVqV6WdRgewJ8nTJ-i-5" target="QnXVqV6WdRgewJ8nTJ-i-3" edge="1">
          <mxGeometry relative="1" as="geometry" />
        </mxCell>
        <mxCell id="QnXVqV6WdRgewJ8nTJ-i-30" style="edgeStyle=orthogonalEdgeStyle;rounded=0;orthogonalLoop=1;jettySize=auto;html=1;entryX=1;entryY=0.5;entryDx=0;entryDy=0;fontSize=12;" parent="1" source="QnXVqV6WdRgewJ8nTJ-i-5" target="QnXVqV6WdRgewJ8nTJ-i-4" edge="1">
          <mxGeometry relative="1" as="geometry" />
        </mxCell>
        <mxCell id="QnXVqV6WdRgewJ8nTJ-i-31" style="edgeStyle=orthogonalEdgeStyle;rounded=0;orthogonalLoop=1;jettySize=auto;html=1;entryX=1;entryY=0.5;entryDx=0;entryDy=0;fontSize=12;" parent="1" source="QnXVqV6WdRgewJ8nTJ-i-5" target="QnXVqV6WdRgewJ8nTJ-i-2" edge="1">
          <mxGeometry relative="1" as="geometry" />
        </mxCell>
        <mxCell id="QnXVqV6WdRgewJ8nTJ-i-6" value="Local Area Network" style="text;html=1;strokeColor=none;fillColor=none;align=left;verticalAlign=middle;whiteSpace=wrap;rounded=0;fontSize=12;" parent="1" vertex="1">
          <mxGeometry x="80" y="843.5" width="120" height="30" as="geometry" />
        </mxCell>
        <mxCell id="QnXVqV6WdRgewJ8nTJ-i-17" value="Ubuntu Server&amp;nbsp; (Hyper-V 0)" style="text;html=1;strokeColor=none;fillColor=none;align=left;verticalAlign=middle;whiteSpace=wrap;rounded=0;fontSize=12;" parent="1" vertex="1">
          <mxGeometry x="400" y="150" width="180" height="20" as="geometry" />
        </mxCell>
        <mxCell id="QnXVqV6WdRgewJ8nTJ-i-33" value="172.17.179.220&amp;nbsp;" style="text;html=1;strokeColor=none;fillColor=none;align=left;verticalAlign=middle;whiteSpace=wrap;rounded=0;fontSize=12;" parent="1" vertex="1">
          <mxGeometry x="400" y="170" width="180" height="20" as="geometry" />
        </mxCell>
        <mxCell id="QnXVqV6WdRgewJ8nTJ-i-35" value="windows-pc&lt;br style=&quot;font-size: 12px;&quot;&gt;192.168.1.3" style="text;html=1;strokeColor=none;fillColor=none;align=left;verticalAlign=middle;whiteSpace=wrap;rounded=0;fontSize=12;" parent="1" vertex="1">
          <mxGeometry x="380" y="70" width="120" height="30" as="geometry" />
        </mxCell>
        <mxCell id="QnXVqV6WdRgewJ8nTJ-i-65" style="edgeStyle=orthogonalEdgeStyle;rounded=0;orthogonalLoop=1;jettySize=auto;html=1;entryX=0;entryY=0.5;entryDx=0;entryDy=0;fontSize=12;" parent="1" source="QnXVqV6WdRgewJ8nTJ-i-66" target="QnXVqV6WdRgewJ8nTJ-i-77" edge="1">
          <mxGeometry relative="1" as="geometry" />
        </mxCell>
        <mxCell id="QnXVqV6WdRgewJ8nTJ-i-66" value="&amp;nbsp;activastick-4&lt;br style=&quot;font-size: 12px;&quot;&gt;&amp;nbsp;192.168.1.24" style="rounded=0;whiteSpace=wrap;html=1;align=left;fontSize=12;" parent="1" vertex="1">
          <mxGeometry x="80" y="427.5" width="140" height="60" as="geometry" />
        </mxCell>
        <mxCell id="QnXVqV6WdRgewJ8nTJ-i-67" style="edgeStyle=orthogonalEdgeStyle;rounded=0;orthogonalLoop=1;jettySize=auto;html=1;entryX=0;entryY=0.5;entryDx=0;entryDy=0;fontSize=12;" parent="1" source="QnXVqV6WdRgewJ8nTJ-i-68" target="QnXVqV6WdRgewJ8nTJ-i-77" edge="1">
          <mxGeometry relative="1" as="geometry" />
        </mxCell>
        <mxCell id="QnXVqV6WdRgewJ8nTJ-i-68" value="&amp;nbsp;activastick-7&lt;br style=&quot;border-color: var(--border-color); font-size: 12px;&quot;&gt;&amp;nbsp;192.168.1.27" style="rounded=0;whiteSpace=wrap;html=1;align=left;fontSize=12;" parent="1" vertex="1">
          <mxGeometry x="80" y="637.5" width="140" height="60" as="geometry" />
        </mxCell>
        <mxCell id="QnXVqV6WdRgewJ8nTJ-i-69" style="edgeStyle=orthogonalEdgeStyle;rounded=0;orthogonalLoop=1;jettySize=auto;html=1;entryX=0;entryY=0.5;entryDx=0;entryDy=0;fontSize=12;" parent="1" source="QnXVqV6WdRgewJ8nTJ-i-70" target="QnXVqV6WdRgewJ8nTJ-i-77" edge="1">
          <mxGeometry relative="1" as="geometry" />
        </mxCell>
        <mxCell id="QnXVqV6WdRgewJ8nTJ-i-70" value="&amp;nbsp;activastick-5&lt;br style=&quot;border-color: var(--border-color); font-size: 12px;&quot;&gt;&amp;nbsp;192.168.1.25&amp;nbsp;&lt;span style=&quot;white-space: pre; font-size: 12px;&quot;&gt;&#x9;&lt;/span&gt;" style="rounded=0;whiteSpace=wrap;html=1;align=left;fontSize=12;" parent="1" vertex="1">
          <mxGeometry x="80" y="497.5" width="140" height="60" as="geometry" />
        </mxCell>
        <mxCell id="QnXVqV6WdRgewJ8nTJ-i-71" style="edgeStyle=orthogonalEdgeStyle;rounded=0;orthogonalLoop=1;jettySize=auto;html=1;entryX=0;entryY=0.5;entryDx=0;entryDy=0;fontSize=12;" parent="1" source="QnXVqV6WdRgewJ8nTJ-i-72" target="QnXVqV6WdRgewJ8nTJ-i-77" edge="1">
          <mxGeometry relative="1" as="geometry" />
        </mxCell>
        <mxCell id="QnXVqV6WdRgewJ8nTJ-i-72" value="&amp;nbsp;activastick-6&lt;br style=&quot;border-color: var(--border-color); font-size: 12px;&quot;&gt;&amp;nbsp;192.168.1.26" style="rounded=0;whiteSpace=wrap;html=1;align=left;fontSize=12;" parent="1" vertex="1">
          <mxGeometry x="80" y="567.5" width="140" height="60" as="geometry" />
        </mxCell>
        <mxCell id="QnXVqV6WdRgewJ8nTJ-i-73" style="edgeStyle=orthogonalEdgeStyle;rounded=0;orthogonalLoop=1;jettySize=auto;html=1;entryX=1;entryY=0.5;entryDx=0;entryDy=0;fontSize=12;" parent="1" source="QnXVqV6WdRgewJ8nTJ-i-77" target="QnXVqV6WdRgewJ8nTJ-i-66" edge="1">
          <mxGeometry relative="1" as="geometry" />
        </mxCell>
        <mxCell id="QnXVqV6WdRgewJ8nTJ-i-74" style="edgeStyle=orthogonalEdgeStyle;rounded=0;orthogonalLoop=1;jettySize=auto;html=1;entryX=1;entryY=0.5;entryDx=0;entryDy=0;fontSize=12;" parent="1" source="QnXVqV6WdRgewJ8nTJ-i-77" target="QnXVqV6WdRgewJ8nTJ-i-70" edge="1">
          <mxGeometry relative="1" as="geometry" />
        </mxCell>
        <mxCell id="QnXVqV6WdRgewJ8nTJ-i-91" value="" style="rounded=0;whiteSpace=wrap;html=1;fontSize=12;" parent="1" vertex="1">
          <mxGeometry x="590" y="210" width="560" height="490" as="geometry" />
        </mxCell>
        <mxCell id="QnXVqV6WdRgewJ8nTJ-i-75" style="edgeStyle=orthogonalEdgeStyle;rounded=0;orthogonalLoop=1;jettySize=auto;html=1;entryX=1;entryY=0.5;entryDx=0;entryDy=0;fontSize=12;" parent="1" source="QnXVqV6WdRgewJ8nTJ-i-77" target="QnXVqV6WdRgewJ8nTJ-i-72" edge="1">
          <mxGeometry relative="1" as="geometry" />
        </mxCell>
        <mxCell id="QnXVqV6WdRgewJ8nTJ-i-76" style="edgeStyle=orthogonalEdgeStyle;rounded=0;orthogonalLoop=1;jettySize=auto;html=1;entryX=1;entryY=0.5;entryDx=0;entryDy=0;fontSize=12;" parent="1" source="QnXVqV6WdRgewJ8nTJ-i-77" target="QnXVqV6WdRgewJ8nTJ-i-68" edge="1">
          <mxGeometry relative="1" as="geometry" />
        </mxCell>
        <mxCell id="QnXVqV6WdRgewJ8nTJ-i-77" value="Ansible K3s&lt;br style=&quot;font-size: 12px;&quot;&gt;Docker" style="rounded=0;whiteSpace=wrap;html=1;fontSize=12;" parent="1" vertex="1">
          <mxGeometry x="405" y="528.75" width="170" height="50" as="geometry" />
        </mxCell>
        <mxCell id="QnXVqV6WdRgewJ8nTJ-i-183" style="edgeStyle=orthogonalEdgeStyle;rounded=0;orthogonalLoop=1;jettySize=auto;html=1;exitX=0;exitY=0.5;exitDx=0;exitDy=0;entryX=1;entryY=0.5;entryDx=0;entryDy=0;" parent="1" source="QnXVqV6WdRgewJ8nTJ-i-96" target="QnXVqV6WdRgewJ8nTJ-i-5" edge="1">
          <mxGeometry relative="1" as="geometry" />
        </mxCell>
        <mxCell id="QnXVqV6WdRgewJ8nTJ-i-96" value="activastick-*.vflorio.com" style="rounded=0;whiteSpace=wrap;html=1;fontSize=12;" parent="1" vertex="1">
          <mxGeometry x="607" y="228.75" width="170" height="50" as="geometry" />
        </mxCell>
        <mxCell id="QnXVqV6WdRgewJ8nTJ-i-99" value="Wide Area Network" style="text;html=1;strokeColor=none;fillColor=none;align=left;verticalAlign=middle;whiteSpace=wrap;rounded=0;fontSize=12;" parent="1" vertex="1">
          <mxGeometry x="80" y="959" width="120" height="30" as="geometry" />
        </mxCell>
        <mxCell id="QnXVqV6WdRgewJ8nTJ-i-141" style="edgeStyle=orthogonalEdgeStyle;rounded=0;orthogonalLoop=1;jettySize=auto;html=1;entryX=0.5;entryY=1;entryDx=0;entryDy=0;" parent="1" source="QnXVqV6WdRgewJ8nTJ-i-101" target="QnXVqV6WdRgewJ8nTJ-i-138" edge="1">
          <mxGeometry relative="1" as="geometry">
            <Array as="points">
              <mxPoint x="845" y="760" />
              <mxPoint x="796" y="760" />
            </Array>
          </mxGeometry>
        </mxCell>
        <mxCell id="QnXVqV6WdRgewJ8nTJ-i-142" style="edgeStyle=orthogonalEdgeStyle;rounded=0;orthogonalLoop=1;jettySize=auto;html=1;entryX=0.5;entryY=1;entryDx=0;entryDy=0;" parent="1" source="QnXVqV6WdRgewJ8nTJ-i-101" target="QnXVqV6WdRgewJ8nTJ-i-140" edge="1">
          <mxGeometry relative="1" as="geometry">
            <Array as="points">
              <mxPoint x="845" y="760" />
              <mxPoint x="890" y="760" />
            </Array>
          </mxGeometry>
        </mxCell>
        <mxCell id="QnXVqV6WdRgewJ8nTJ-i-105" value="a" style="endArrow=none;dashed=1;html=1;rounded=0;fontSize=12;" parent="1" edge="1">
          <mxGeometry width="50" height="50" relative="1" as="geometry">
            <mxPoint x="-320" y="920" as="sourcePoint" />
            <mxPoint x="1640" y="920" as="targetPoint" />
          </mxGeometry>
        </mxCell>
        <mxCell id="QnXVqV6WdRgewJ8nTJ-i-180" style="edgeStyle=orthogonalEdgeStyle;rounded=0;orthogonalLoop=1;jettySize=auto;html=1;entryX=1;entryY=0.5;entryDx=0;entryDy=0;" parent="1" source="QnXVqV6WdRgewJ8nTJ-i-122" target="QnXVqV6WdRgewJ8nTJ-i-77" edge="1">
          <mxGeometry relative="1" as="geometry" />
        </mxCell>
        <mxCell id="QnXVqV6WdRgewJ8nTJ-i-122" value="&amp;nbsp; &amp;nbsp;k3s-cluster-0.vflorio.com" style="rounded=0;whiteSpace=wrap;html=1;fontSize=12;" parent="1" vertex="1">
          <mxGeometry x="607" y="528.75" width="170" height="50" as="geometry" />
        </mxCell>
        <mxCell id="QnXVqV6WdRgewJ8nTJ-i-130" value="K3s&amp;nbsp;&lt;br style=&quot;font-size: 12px;&quot;&gt;Node" style="rounded=0;whiteSpace=wrap;html=1;fontSize=12;" parent="1" vertex="1">
          <mxGeometry x="170" y="438.75" width="50" height="37.5" as="geometry" />
        </mxCell>
        <mxCell id="QnXVqV6WdRgewJ8nTJ-i-133" value="K3s&amp;nbsp;&lt;br style=&quot;border-color: var(--border-color); font-size: 12px;&quot;&gt;Node" style="rounded=0;whiteSpace=wrap;html=1;fontSize=12;" parent="1" vertex="1">
          <mxGeometry x="170" y="508.75" width="50" height="37.5" as="geometry" />
        </mxCell>
        <mxCell id="QnXVqV6WdRgewJ8nTJ-i-134" value="K3s&amp;nbsp;&lt;br style=&quot;border-color: var(--border-color); font-size: 12px;&quot;&gt;Node" style="rounded=0;whiteSpace=wrap;html=1;fontSize=12;" parent="1" vertex="1">
          <mxGeometry x="170" y="648.75" width="50" height="37.5" as="geometry" />
        </mxCell>
        <mxCell id="QnXVqV6WdRgewJ8nTJ-i-135" value="K3s&amp;nbsp;&lt;br style=&quot;border-color: var(--border-color); font-size: 12px;&quot;&gt;Node" style="rounded=0;whiteSpace=wrap;html=1;fontSize=12;" parent="1" vertex="1">
          <mxGeometry x="170" y="578.75" width="50" height="37.5" as="geometry" />
        </mxCell>
        <mxCell id="QnXVqV6WdRgewJ8nTJ-i-136" value="&lt;font style=&quot;font-size: 12px;&quot;&gt;in futuro un instanza replicata da proxmox&lt;/font&gt;" style="text;html=1;strokeColor=none;fillColor=none;align=left;verticalAlign=middle;whiteSpace=wrap;rounded=0;fontSize=12;" parent="1" vertex="1">
          <mxGeometry x="590" y="150" width="270" height="27.5" as="geometry" />
        </mxCell>
        <mxCell id="QnXVqV6WdRgewJ8nTJ-i-207" style="edgeStyle=orthogonalEdgeStyle;rounded=0;orthogonalLoop=1;jettySize=auto;html=1;entryX=0.5;entryY=0;entryDx=0;entryDy=0;" parent="1" source="QnXVqV6WdRgewJ8nTJ-i-138" target="QnXVqV6WdRgewJ8nTJ-i-140" edge="1">
          <mxGeometry relative="1" as="geometry">
            <Array as="points">
              <mxPoint x="800" y="590" />
              <mxPoint x="885" y="590" />
            </Array>
          </mxGeometry>
        </mxCell>
        <mxCell id="QnXVqV6WdRgewJ8nTJ-i-138" value="HTTP&amp;nbsp;&lt;br&gt;Ingress" style="rounded=1;whiteSpace=wrap;html=1;fontSize=12;arcSize=22;" parent="1" vertex="1">
          <mxGeometry x="760" y="610" width="73" height="60" as="geometry" />
        </mxCell>
        <mxCell id="6dSnEPWLA5yRJOX2oWhd-18" style="edgeStyle=orthogonalEdgeStyle;rounded=0;orthogonalLoop=1;jettySize=auto;html=1;exitX=1;exitY=0.5;exitDx=0;exitDy=0;" parent="1" source="QnXVqV6WdRgewJ8nTJ-i-140" target="6dSnEPWLA5yRJOX2oWhd-15" edge="1">
          <mxGeometry relative="1" as="geometry" />
        </mxCell>
        <mxCell id="6dSnEPWLA5yRJOX2oWhd-53" style="edgeStyle=orthogonalEdgeStyle;rounded=0;orthogonalLoop=1;jettySize=auto;html=1;entryX=0.5;entryY=1;entryDx=0;entryDy=0;" parent="1" source="QnXVqV6WdRgewJ8nTJ-i-140" target="QnXVqV6WdRgewJ8nTJ-i-147" edge="1">
          <mxGeometry relative="1" as="geometry" />
        </mxCell>
        <mxCell id="QnXVqV6WdRgewJ8nTJ-i-140" value="HTTPS&lt;br&gt;Ingress" style="rounded=1;whiteSpace=wrap;html=1;fontSize=12;arcSize=27;" parent="1" vertex="1">
          <mxGeometry x="850" y="610" width="70" height="60" as="geometry" />
        </mxCell>
        <mxCell id="QnXVqV6WdRgewJ8nTJ-i-163" style="edgeStyle=orthogonalEdgeStyle;rounded=0;orthogonalLoop=1;jettySize=auto;html=1;entryX=1;entryY=0.5;entryDx=0;entryDy=0;" parent="1" source="QnXVqV6WdRgewJ8nTJ-i-147" target="QnXVqV6WdRgewJ8nTJ-i-96" edge="1">
          <mxGeometry relative="1" as="geometry" />
        </mxCell>
        <mxCell id="QnXVqV6WdRgewJ8nTJ-i-164" style="edgeStyle=orthogonalEdgeStyle;rounded=0;orthogonalLoop=1;jettySize=auto;html=1;entryX=1;entryY=0.5;entryDx=0;entryDy=0;" parent="1" source="QnXVqV6WdRgewJ8nTJ-i-147" target="QnXVqV6WdRgewJ8nTJ-i-156" edge="1">
          <mxGeometry relative="1" as="geometry" />
        </mxCell>
        <mxCell id="QnXVqV6WdRgewJ8nTJ-i-165" style="edgeStyle=orthogonalEdgeStyle;rounded=0;orthogonalLoop=1;jettySize=auto;html=1;" parent="1" source="QnXVqV6WdRgewJ8nTJ-i-147" target="QnXVqV6WdRgewJ8nTJ-i-154" edge="1">
          <mxGeometry relative="1" as="geometry" />
        </mxCell>
        <mxCell id="QnXVqV6WdRgewJ8nTJ-i-166" style="edgeStyle=orthogonalEdgeStyle;rounded=0;orthogonalLoop=1;jettySize=auto;html=1;entryX=1;entryY=0.5;entryDx=0;entryDy=0;" parent="1" source="QnXVqV6WdRgewJ8nTJ-i-147" target="QnXVqV6WdRgewJ8nTJ-i-152" edge="1">
          <mxGeometry relative="1" as="geometry" />
        </mxCell>
        <mxCell id="QnXVqV6WdRgewJ8nTJ-i-167" style="edgeStyle=orthogonalEdgeStyle;rounded=0;orthogonalLoop=1;jettySize=auto;html=1;entryX=1;entryY=0.5;entryDx=0;entryDy=0;" parent="1" source="QnXVqV6WdRgewJ8nTJ-i-147" target="QnXVqV6WdRgewJ8nTJ-i-149" edge="1">
          <mxGeometry relative="1" as="geometry" />
        </mxCell>
        <mxCell id="QnXVqV6WdRgewJ8nTJ-i-168" style="edgeStyle=orthogonalEdgeStyle;rounded=0;orthogonalLoop=1;jettySize=auto;html=1;entryX=1;entryY=0.5;entryDx=0;entryDy=0;" parent="1" source="QnXVqV6WdRgewJ8nTJ-i-147" target="QnXVqV6WdRgewJ8nTJ-i-122" edge="1">
          <mxGeometry relative="1" as="geometry" />
        </mxCell>
        <mxCell id="QnXVqV6WdRgewJ8nTJ-i-169" style="edgeStyle=orthogonalEdgeStyle;rounded=0;orthogonalLoop=1;jettySize=auto;html=1;entryX=0;entryY=0.5;entryDx=0;entryDy=0;" parent="1" source="QnXVqV6WdRgewJ8nTJ-i-147" target="QnXVqV6WdRgewJ8nTJ-i-158" edge="1">
          <mxGeometry relative="1" as="geometry" />
        </mxCell>
        <mxCell id="QnXVqV6WdRgewJ8nTJ-i-170" style="edgeStyle=orthogonalEdgeStyle;rounded=0;orthogonalLoop=1;jettySize=auto;html=1;entryX=0;entryY=0.5;entryDx=0;entryDy=0;" parent="1" source="QnXVqV6WdRgewJ8nTJ-i-147" target="QnXVqV6WdRgewJ8nTJ-i-162" edge="1">
          <mxGeometry relative="1" as="geometry" />
        </mxCell>
        <mxCell id="QnXVqV6WdRgewJ8nTJ-i-196" style="edgeStyle=orthogonalEdgeStyle;rounded=0;orthogonalLoop=1;jettySize=auto;html=1;exitX=1;exitY=0.5;exitDx=0;exitDy=0;entryX=0;entryY=0.5;entryDx=0;entryDy=0;" parent="1" source="QnXVqV6WdRgewJ8nTJ-i-147" target="QnXVqV6WdRgewJ8nTJ-i-193" edge="1">
          <mxGeometry relative="1" as="geometry" />
        </mxCell>
        <mxCell id="QnXVqV6WdRgewJ8nTJ-i-197" style="edgeStyle=orthogonalEdgeStyle;rounded=0;orthogonalLoop=1;jettySize=auto;html=1;exitX=1;exitY=0.5;exitDx=0;exitDy=0;entryX=0;entryY=0.5;entryDx=0;entryDy=0;" parent="1" source="QnXVqV6WdRgewJ8nTJ-i-147" target="QnXVqV6WdRgewJ8nTJ-i-195" edge="1">
          <mxGeometry relative="1" as="geometry" />
        </mxCell>
        <mxCell id="QnXVqV6WdRgewJ8nTJ-i-203" style="edgeStyle=orthogonalEdgeStyle;rounded=0;orthogonalLoop=1;jettySize=auto;html=1;exitX=1;exitY=0.5;exitDx=0;exitDy=0;entryX=0;entryY=0.5;entryDx=0;entryDy=0;" parent="1" source="QnXVqV6WdRgewJ8nTJ-i-147" target="QnXVqV6WdRgewJ8nTJ-i-202" edge="1">
          <mxGeometry relative="1" as="geometry" />
        </mxCell>
        <mxCell id="6dSnEPWLA5yRJOX2oWhd-54" style="edgeStyle=orthogonalEdgeStyle;rounded=0;orthogonalLoop=1;jettySize=auto;html=1;entryX=0.5;entryY=1;entryDx=0;entryDy=0;" parent="1" source="QnXVqV6WdRgewJ8nTJ-i-147" target="6dSnEPWLA5yRJOX2oWhd-42" edge="1">
          <mxGeometry relative="1" as="geometry">
            <Array as="points">
              <mxPoint x="866" />
              <mxPoint x="700" />
            </Array>
          </mxGeometry>
        </mxCell>
        <mxCell id="QnXVqV6WdRgewJ8nTJ-i-147" value="&lt;font style=&quot;&quot;&gt;&lt;b style=&quot;font-size: 14px;&quot;&gt;Traefik&lt;/b&gt;&lt;br&gt;&lt;font style=&quot;font-size: 12px;&quot;&gt;docker&lt;/font&gt;&lt;br&gt;&lt;/font&gt;" style="text;html=1;strokeColor=none;fillColor=none;align=center;verticalAlign=middle;whiteSpace=wrap;rounded=0;" parent="1" vertex="1">
          <mxGeometry x="826.5" y="376.25" width="80" height="51.25" as="geometry" />
        </mxCell>
        <mxCell id="QnXVqV6WdRgewJ8nTJ-i-5" value="Ansible Semaphore&lt;br style=&quot;font-size: 12px;&quot;&gt;Docker" style="rounded=0;whiteSpace=wrap;html=1;fontSize=12;" parent="1" vertex="1">
          <mxGeometry x="405" y="228.75" width="170" height="50" as="geometry" />
        </mxCell>
        <mxCell id="QnXVqV6WdRgewJ8nTJ-i-148" value="SDS Server &lt;br&gt;Docker&lt;span style=&quot;white-space: pre;&quot;&gt;&#x9;&lt;/span&gt;" style="rounded=0;whiteSpace=wrap;html=1;fontSize=12;" parent="1" vertex="1">
          <mxGeometry x="405" y="468.75" width="170" height="50" as="geometry" />
        </mxCell>
        <mxCell id="QnXVqV6WdRgewJ8nTJ-i-187" style="edgeStyle=orthogonalEdgeStyle;rounded=0;orthogonalLoop=1;jettySize=auto;html=1;entryX=1;entryY=0.5;entryDx=0;entryDy=0;" parent="1" source="QnXVqV6WdRgewJ8nTJ-i-149" target="QnXVqV6WdRgewJ8nTJ-i-148" edge="1">
          <mxGeometry relative="1" as="geometry" />
        </mxCell>
        <mxCell id="QnXVqV6WdRgewJ8nTJ-i-149" value="sds-server.vflorio.com" style="rounded=0;whiteSpace=wrap;html=1;fontSize=12;" parent="1" vertex="1">
          <mxGeometry x="607" y="468.75" width="170" height="50" as="geometry" />
        </mxCell>
        <mxCell id="QnXVqV6WdRgewJ8nTJ-i-151" value="HomeLab Dashboard&lt;br&gt;Docker&lt;span style=&quot;white-space: pre;&quot;&gt;&#x9;&lt;/span&gt;" style="rounded=0;whiteSpace=wrap;html=1;fontSize=12;" parent="1" vertex="1">
          <mxGeometry x="405" y="408.75" width="170" height="50" as="geometry" />
        </mxCell>
        <mxCell id="QnXVqV6WdRgewJ8nTJ-i-186" style="edgeStyle=orthogonalEdgeStyle;rounded=0;orthogonalLoop=1;jettySize=auto;html=1;entryX=1;entryY=0.5;entryDx=0;entryDy=0;" parent="1" source="QnXVqV6WdRgewJ8nTJ-i-152" target="QnXVqV6WdRgewJ8nTJ-i-151" edge="1">
          <mxGeometry relative="1" as="geometry" />
        </mxCell>
        <mxCell id="QnXVqV6WdRgewJ8nTJ-i-152" value="dashboard.vflorio.com" style="rounded=0;whiteSpace=wrap;html=1;fontSize=12;" parent="1" vertex="1">
          <mxGeometry x="607" y="408.75" width="170" height="50" as="geometry" />
        </mxCell>
        <mxCell id="QnXVqV6WdRgewJ8nTJ-i-153" value="Nextcloud &lt;br&gt;Docker&lt;span style=&quot;white-space: pre;&quot;&gt;&#x9;&lt;/span&gt;" style="rounded=0;whiteSpace=wrap;html=1;fontSize=12;" parent="1" vertex="1">
          <mxGeometry x="405" y="348.75" width="170" height="50" as="geometry" />
        </mxCell>
        <mxCell id="QnXVqV6WdRgewJ8nTJ-i-185" style="edgeStyle=orthogonalEdgeStyle;rounded=0;orthogonalLoop=1;jettySize=auto;html=1;entryX=1;entryY=0.5;entryDx=0;entryDy=0;" parent="1" source="QnXVqV6WdRgewJ8nTJ-i-154" target="QnXVqV6WdRgewJ8nTJ-i-153" edge="1">
          <mxGeometry relative="1" as="geometry" />
        </mxCell>
        <mxCell id="QnXVqV6WdRgewJ8nTJ-i-154" value="nextcloud.vflorio.com" style="rounded=0;whiteSpace=wrap;html=1;fontSize=12;" parent="1" vertex="1">
          <mxGeometry x="607" y="348.75" width="170" height="50" as="geometry" />
        </mxCell>
        <mxCell id="QnXVqV6WdRgewJ8nTJ-i-155" value="Jellyfin &lt;br&gt;Docker&lt;span style=&quot;white-space: pre;&quot;&gt;&#x9;&lt;/span&gt;" style="rounded=0;whiteSpace=wrap;html=1;fontSize=12;" parent="1" vertex="1">
          <mxGeometry x="405" y="288.75" width="170" height="50" as="geometry" />
        </mxCell>
        <mxCell id="QnXVqV6WdRgewJ8nTJ-i-184" style="edgeStyle=orthogonalEdgeStyle;rounded=0;orthogonalLoop=1;jettySize=auto;html=1;entryX=1;entryY=0.5;entryDx=0;entryDy=0;" parent="1" source="QnXVqV6WdRgewJ8nTJ-i-156" target="QnXVqV6WdRgewJ8nTJ-i-155" edge="1">
          <mxGeometry relative="1" as="geometry" />
        </mxCell>
        <mxCell id="QnXVqV6WdRgewJ8nTJ-i-156" value="&amp;nbsp; &amp;nbsp; &amp;nbsp;jellyfin.vflorio.com" style="rounded=0;whiteSpace=wrap;html=1;fontSize=12;" parent="1" vertex="1">
          <mxGeometry x="607" y="288.75" width="170" height="50" as="geometry" />
        </mxCell>
        <mxCell id="QnXVqV6WdRgewJ8nTJ-i-157" value="Bitwarden Docker" style="rounded=0;whiteSpace=wrap;html=1;fontSize=12;" parent="1" vertex="1">
          <mxGeometry x="1170" y="468.75" width="170" height="50" as="geometry" />
        </mxCell>
        <mxCell id="QnXVqV6WdRgewJ8nTJ-i-173" style="edgeStyle=orthogonalEdgeStyle;rounded=0;orthogonalLoop=1;jettySize=auto;html=1;entryX=0;entryY=0.5;entryDx=0;entryDy=0;" parent="1" source="QnXVqV6WdRgewJ8nTJ-i-158" target="QnXVqV6WdRgewJ8nTJ-i-157" edge="1">
          <mxGeometry relative="1" as="geometry" />
        </mxCell>
        <mxCell id="QnXVqV6WdRgewJ8nTJ-i-158" value="bitwarden.vflorio.com" style="rounded=0;whiteSpace=wrap;html=1;fontSize=12;" parent="1" vertex="1">
          <mxGeometry x="960" y="468.75" width="170" height="50" as="geometry" />
        </mxCell>
        <mxCell id="QnXVqV6WdRgewJ8nTJ-i-161" value="GitLab Docker" style="rounded=0;whiteSpace=wrap;html=1;fontSize=12;" parent="1" vertex="1">
          <mxGeometry x="1170" y="288.75" width="170" height="50" as="geometry" />
        </mxCell>
        <mxCell id="QnXVqV6WdRgewJ8nTJ-i-171" value="" style="edgeStyle=orthogonalEdgeStyle;rounded=0;orthogonalLoop=1;jettySize=auto;html=1;" parent="1" source="QnXVqV6WdRgewJ8nTJ-i-162" target="QnXVqV6WdRgewJ8nTJ-i-161" edge="1">
          <mxGeometry relative="1" as="geometry" />
        </mxCell>
        <mxCell id="QnXVqV6WdRgewJ8nTJ-i-162" value="gitlab.vflorio.com" style="rounded=0;whiteSpace=wrap;html=1;fontSize=12;" parent="1" vertex="1">
          <mxGeometry x="960" y="288.75" width="170" height="50" as="geometry" />
        </mxCell>
        <mxCell id="QnXVqV6WdRgewJ8nTJ-i-192" value="OnlyOffice Docker" style="rounded=0;whiteSpace=wrap;html=1;fontSize=12;" parent="1" vertex="1">
          <mxGeometry x="1170" y="408.75" width="170" height="50" as="geometry" />
        </mxCell>
        <mxCell id="QnXVqV6WdRgewJ8nTJ-i-199" style="edgeStyle=orthogonalEdgeStyle;rounded=0;orthogonalLoop=1;jettySize=auto;html=1;entryX=0;entryY=0.5;entryDx=0;entryDy=0;" parent="1" source="QnXVqV6WdRgewJ8nTJ-i-193" target="QnXVqV6WdRgewJ8nTJ-i-192" edge="1">
          <mxGeometry relative="1" as="geometry" />
        </mxCell>
        <mxCell id="QnXVqV6WdRgewJ8nTJ-i-193" value="onlyoffice.vflorio.com" style="rounded=0;whiteSpace=wrap;html=1;fontSize=12;" parent="1" vertex="1">
          <mxGeometry x="960" y="408.75" width="170" height="50" as="geometry" />
        </mxCell>
        <mxCell id="QnXVqV6WdRgewJ8nTJ-i-194" value="Grafana Docker" style="rounded=0;whiteSpace=wrap;html=1;fontSize=12;" parent="1" vertex="1">
          <mxGeometry x="1170" y="348.75" width="170" height="50" as="geometry" />
        </mxCell>
        <mxCell id="QnXVqV6WdRgewJ8nTJ-i-200" style="edgeStyle=orthogonalEdgeStyle;rounded=0;orthogonalLoop=1;jettySize=auto;html=1;entryX=0;entryY=0.5;entryDx=0;entryDy=0;" parent="1" source="QnXVqV6WdRgewJ8nTJ-i-195" target="QnXVqV6WdRgewJ8nTJ-i-194" edge="1">
          <mxGeometry relative="1" as="geometry" />
        </mxCell>
        <mxCell id="QnXVqV6WdRgewJ8nTJ-i-195" value="grafana.vflorio.com" style="rounded=0;whiteSpace=wrap;html=1;fontSize=12;" parent="1" vertex="1">
          <mxGeometry x="960" y="348.75" width="170" height="50" as="geometry" />
        </mxCell>
        <mxCell id="QnXVqV6WdRgewJ8nTJ-i-201" value="Portainer Docker" style="rounded=0;whiteSpace=wrap;html=1;fontSize=12;" parent="1" vertex="1">
          <mxGeometry x="1170" y="228.75" width="170" height="50" as="geometry" />
        </mxCell>
        <mxCell id="QnXVqV6WdRgewJ8nTJ-i-204" style="edgeStyle=orthogonalEdgeStyle;rounded=0;orthogonalLoop=1;jettySize=auto;html=1;entryX=0;entryY=0.5;entryDx=0;entryDy=0;" parent="1" source="QnXVqV6WdRgewJ8nTJ-i-202" target="QnXVqV6WdRgewJ8nTJ-i-201" edge="1">
          <mxGeometry relative="1" as="geometry" />
        </mxCell>
        <mxCell id="QnXVqV6WdRgewJ8nTJ-i-202" value="portainer.vflorio.com" style="rounded=0;whiteSpace=wrap;html=1;fontSize=12;" parent="1" vertex="1">
          <mxGeometry x="960" y="228.75" width="170" height="50" as="geometry" />
        </mxCell>
        <mxCell id="QnXVqV6WdRgewJ8nTJ-i-213" value="windows-laptop&lt;br style=&quot;border-color: var(--border-color);&quot;&gt;&lt;span style=&quot;border-color: var(--border-color);&quot;&gt;192.168.1.5&lt;/span&gt;" style="text;html=1;strokeColor=none;fillColor=none;align=left;verticalAlign=middle;whiteSpace=wrap;rounded=0;fontSize=12;" parent="1" vertex="1">
          <mxGeometry x="380" y="-447.5" width="120" height="30" as="geometry" />
        </mxCell>
        <mxCell id="6dSnEPWLA5yRJOX2oWhd-1" value="Public IP" style="rounded=0;whiteSpace=wrap;html=1;fontSize=12;" parent="1" vertex="1">
          <mxGeometry x="778.25" y="870" width="133.5" height="29" as="geometry" />
        </mxCell>
        <mxCell id="6dSnEPWLA5yRJOX2oWhd-11" style="edgeStyle=orthogonalEdgeStyle;rounded=0;orthogonalLoop=1;jettySize=auto;html=1;exitX=0.5;exitY=1;exitDx=0;exitDy=0;" parent="1" source="6dSnEPWLA5yRJOX2oWhd-2" edge="1">
          <mxGeometry relative="1" as="geometry">
            <mxPoint x="843.2857142857142" y="1070" as="targetPoint" />
          </mxGeometry>
        </mxCell>
        <mxCell id="6dSnEPWLA5yRJOX2oWhd-2" value="record proxy IP" style="rounded=0;whiteSpace=wrap;html=1;fontSize=12;" parent="1" vertex="1">
          <mxGeometry x="776.5" y="1001" width="133.5" height="29" as="geometry" />
        </mxCell>
        <mxCell id="6dSnEPWLA5yRJOX2oWhd-12" style="edgeStyle=orthogonalEdgeStyle;rounded=0;orthogonalLoop=1;jettySize=auto;html=1;entryX=0.5;entryY=1;entryDx=0;entryDy=0;" parent="1" source="6dSnEPWLA5yRJOX2oWhd-4" target="6dSnEPWLA5yRJOX2oWhd-1" edge="1">
          <mxGeometry relative="1" as="geometry" />
        </mxCell>
        <mxCell id="6dSnEPWLA5yRJOX2oWhd-4" value="&lt;span style=&quot;color: rgb(0, 0, 0); font-family: Helvetica; font-size: 12px; font-style: normal; font-variant-ligatures: normal; font-variant-caps: normal; font-weight: 400; letter-spacing: normal; orphans: 2; text-align: center; text-indent: 0px; text-transform: none; widows: 2; word-spacing: 0px; -webkit-text-stroke-width: 0px; background-color: rgb(251, 251, 251); text-decoration-thickness: initial; text-decoration-style: initial; text-decoration-color: initial; float: none; display: inline !important;&quot;&gt;Cloudflare&lt;/span&gt;" style="text;html=1;strokeColor=none;fillColor=none;align=center;verticalAlign=middle;whiteSpace=wrap;rounded=0;" parent="1" vertex="1">
          <mxGeometry x="760" y="951" width="170" height="50" as="geometry" />
        </mxCell>
        <mxCell id="6dSnEPWLA5yRJOX2oWhd-9" style="edgeStyle=orthogonalEdgeStyle;rounded=0;orthogonalLoop=1;jettySize=auto;html=1;entryX=0.5;entryY=1;entryDx=0;entryDy=0;" parent="1" source="6dSnEPWLA5yRJOX2oWhd-6" target="6dSnEPWLA5yRJOX2oWhd-2" edge="1">
          <mxGeometry relative="1" as="geometry" />
        </mxCell>
        <mxCell id="6dSnEPWLA5yRJOX2oWhd-6" value="*.vflorio.com" style="rounded=0;whiteSpace=wrap;html=1;fontSize=12;" parent="1" vertex="1">
          <mxGeometry x="777" y="1070" width="133" height="29" as="geometry" />
        </mxCell>
        <mxCell id="6dSnEPWLA5yRJOX2oWhd-7" value="&lt;span style=&quot;color: rgb(0, 0, 0); font-family: Helvetica; font-size: 12px; font-style: normal; font-variant-ligatures: normal; font-variant-caps: normal; font-weight: 400; letter-spacing: normal; orphans: 2; text-align: center; text-indent: 0px; text-transform: none; widows: 2; word-spacing: 0px; -webkit-text-stroke-width: 0px; background-color: rgb(251, 251, 251); text-decoration-thickness: initial; text-decoration-style: initial; text-decoration-color: initial; float: none; display: inline !important;&quot;&gt;internet&lt;/span&gt;" style="text;html=1;strokeColor=none;fillColor=none;align=center;verticalAlign=middle;whiteSpace=wrap;rounded=0;" parent="1" vertex="1">
          <mxGeometry x="760" y="1095.5" width="170" height="50" as="geometry" />
        </mxCell>
        <mxCell id="6dSnEPWLA5yRJOX2oWhd-16" value="" style="edgeStyle=orthogonalEdgeStyle;rounded=0;orthogonalLoop=1;jettySize=auto;html=1;" parent="1" source="6dSnEPWLA5yRJOX2oWhd-14" target="6dSnEPWLA5yRJOX2oWhd-15" edge="1">
          <mxGeometry relative="1" as="geometry" />
        </mxCell>
        <mxCell id="6dSnEPWLA5yRJOX2oWhd-14" value="Let&#39;s Encrypt TLS&lt;br&gt;Directory" style="rounded=0;whiteSpace=wrap;html=1;fontSize=12;" parent="1" vertex="1">
          <mxGeometry x="999" y="959" width="170" height="71" as="geometry" />
        </mxCell>
        <mxCell id="6dSnEPWLA5yRJOX2oWhd-20" style="edgeStyle=orthogonalEdgeStyle;rounded=0;orthogonalLoop=1;jettySize=auto;html=1;entryX=1;entryY=0.5;entryDx=0;entryDy=0;exitX=0.5;exitY=0;exitDx=0;exitDy=0;" parent="1" source="6dSnEPWLA5yRJOX2oWhd-15" target="QnXVqV6WdRgewJ8nTJ-i-140" edge="1">
          <mxGeometry relative="1" as="geometry" />
        </mxCell>
        <mxCell id="6dSnEPWLA5yRJOX2oWhd-15" value="ACME&lt;br&gt;Challenge" style="shape=parallelogram;perimeter=parallelogramPerimeter;whiteSpace=wrap;html=1;fixedSize=1;rounded=0;" parent="1" vertex="1">
          <mxGeometry x="1025" y="813.5" width="120" height="60" as="geometry" />
        </mxCell>
        <mxCell id="6dSnEPWLA5yRJOX2oWhd-29" value="srv-demo-0.vflorio.com&lt;br&gt;192.168.1.100&lt;br&gt;ubuntu-focal" style="rounded=0;whiteSpace=wrap;html=1;fontSize=12;" parent="1" vertex="1">
          <mxGeometry x="400" y="-373.12" width="170" height="50" as="geometry" />
        </mxCell>
        <mxCell id="6dSnEPWLA5yRJOX2oWhd-31" value="srv-demo-1.vflorio.com&lt;br&gt;192.168.1.101&lt;br&gt;ubuntu-focal" style="rounded=0;whiteSpace=wrap;html=1;fontSize=12;" parent="1" vertex="1">
          <mxGeometry x="400" y="-303.12" width="170" height="50" as="geometry" />
        </mxCell>
        <mxCell id="6dSnEPWLA5yRJOX2oWhd-32" value="srv-demo-2.vflorio.com&lt;br&gt;192.168.1.102&lt;br&gt;windows-server-2022" style="rounded=0;whiteSpace=wrap;html=1;fontSize=12;" parent="1" vertex="1">
          <mxGeometry x="400" y="-233.12" width="170" height="50" as="geometry" />
        </mxCell>
        <mxCell id="6dSnEPWLA5yRJOX2oWhd-101" style="edgeStyle=orthogonalEdgeStyle;rounded=0;orthogonalLoop=1;jettySize=auto;html=1;entryX=1;entryY=0.5;entryDx=0;entryDy=0;" parent="1" source="6dSnEPWLA5yRJOX2oWhd-33" target="6dSnEPWLA5yRJOX2oWhd-89" edge="1">
          <mxGeometry relative="1" as="geometry" />
        </mxCell>
        <mxCell id="6dSnEPWLA5yRJOX2oWhd-33" value="ha-cluster-demo-0.vflorio.com&lt;br&gt;192.168.1.*" style="rounded=0;whiteSpace=wrap;html=1;fontSize=12;" parent="1" vertex="1">
          <mxGeometry x="400" y="-161.87" width="170" height="50" as="geometry" />
        </mxCell>
        <mxCell id="6dSnEPWLA5yRJOX2oWhd-34" value="nas-demo-0.vflorio.com&lt;br&gt;192.168.1.110&lt;br&gt;TrueNAS" style="rounded=0;whiteSpace=wrap;html=1;fontSize=12;" parent="1" vertex="1">
          <mxGeometry x="820" y="-231.87" width="170" height="50" as="geometry" />
        </mxCell>
        <mxCell id="6dSnEPWLA5yRJOX2oWhd-35" value="firewall-demo-0.vflorio.com&lt;br&gt;192.168.1.120&lt;br&gt;OPNsense" style="rounded=0;whiteSpace=wrap;html=1;fontSize=12;" parent="1" vertex="1">
          <mxGeometry x="820" y="-161.87" width="170" height="50" as="geometry" />
        </mxCell>
        <mxCell id="6dSnEPWLA5yRJOX2oWhd-40" value="srv-prod-0.vflorio.com&lt;br&gt;192.168.1.110&lt;br&gt;ubuntu-focal" style="rounded=0;whiteSpace=wrap;html=1;fontSize=12;" parent="1" vertex="1">
          <mxGeometry x="820" y="-373.12" width="170" height="50" as="geometry" />
        </mxCell>
        <mxCell id="6dSnEPWLA5yRJOX2oWhd-41" value="srv-prod-1.vflorio.com&lt;br&gt;192.168.1.111&lt;br&gt;ubuntu-focal" style="rounded=0;whiteSpace=wrap;html=1;fontSize=12;" parent="1" vertex="1">
          <mxGeometry x="820" y="-303.12" width="170" height="50" as="geometry" />
        </mxCell>
        <mxCell id="6dSnEPWLA5yRJOX2oWhd-43" style="edgeStyle=orthogonalEdgeStyle;rounded=0;orthogonalLoop=1;jettySize=auto;html=1;entryX=0;entryY=0.5;entryDx=0;entryDy=0;" parent="1" source="6dSnEPWLA5yRJOX2oWhd-42" target="6dSnEPWLA5yRJOX2oWhd-34" edge="1">
          <mxGeometry relative="1" as="geometry" />
        </mxCell>
        <mxCell id="6dSnEPWLA5yRJOX2oWhd-44" style="edgeStyle=orthogonalEdgeStyle;rounded=0;orthogonalLoop=1;jettySize=auto;html=1;entryX=0;entryY=0.5;entryDx=0;entryDy=0;" parent="1" source="6dSnEPWLA5yRJOX2oWhd-42" target="6dSnEPWLA5yRJOX2oWhd-41" edge="1">
          <mxGeometry relative="1" as="geometry" />
        </mxCell>
        <mxCell id="6dSnEPWLA5yRJOX2oWhd-45" style="edgeStyle=orthogonalEdgeStyle;rounded=0;orthogonalLoop=1;jettySize=auto;html=1;entryX=0;entryY=0.5;entryDx=0;entryDy=0;" parent="1" source="6dSnEPWLA5yRJOX2oWhd-42" target="6dSnEPWLA5yRJOX2oWhd-40" edge="1">
          <mxGeometry relative="1" as="geometry" />
        </mxCell>
        <mxCell id="6dSnEPWLA5yRJOX2oWhd-46" style="edgeStyle=orthogonalEdgeStyle;rounded=0;orthogonalLoop=1;jettySize=auto;html=1;entryX=0;entryY=0.5;entryDx=0;entryDy=0;" parent="1" source="6dSnEPWLA5yRJOX2oWhd-42" target="6dSnEPWLA5yRJOX2oWhd-35" edge="1">
          <mxGeometry relative="1" as="geometry" />
        </mxCell>
        <mxCell id="6dSnEPWLA5yRJOX2oWhd-47" style="edgeStyle=orthogonalEdgeStyle;rounded=0;orthogonalLoop=1;jettySize=auto;html=1;exitX=0;exitY=0.5;exitDx=0;exitDy=0;entryX=1;entryY=0.5;entryDx=0;entryDy=0;" parent="1" source="6dSnEPWLA5yRJOX2oWhd-42" target="6dSnEPWLA5yRJOX2oWhd-33" edge="1">
          <mxGeometry relative="1" as="geometry" />
        </mxCell>
        <mxCell id="6dSnEPWLA5yRJOX2oWhd-48" style="edgeStyle=orthogonalEdgeStyle;rounded=0;orthogonalLoop=1;jettySize=auto;html=1;entryX=1;entryY=0.5;entryDx=0;entryDy=0;" parent="1" source="6dSnEPWLA5yRJOX2oWhd-42" target="6dSnEPWLA5yRJOX2oWhd-32" edge="1">
          <mxGeometry relative="1" as="geometry" />
        </mxCell>
        <mxCell id="6dSnEPWLA5yRJOX2oWhd-49" style="edgeStyle=orthogonalEdgeStyle;rounded=0;orthogonalLoop=1;jettySize=auto;html=1;entryX=1;entryY=0.5;entryDx=0;entryDy=0;" parent="1" source="6dSnEPWLA5yRJOX2oWhd-42" target="6dSnEPWLA5yRJOX2oWhd-31" edge="1">
          <mxGeometry relative="1" as="geometry" />
        </mxCell>
        <mxCell id="6dSnEPWLA5yRJOX2oWhd-50" style="edgeStyle=orthogonalEdgeStyle;rounded=0;orthogonalLoop=1;jettySize=auto;html=1;entryX=1;entryY=0.5;entryDx=0;entryDy=0;" parent="1" source="6dSnEPWLA5yRJOX2oWhd-42" target="6dSnEPWLA5yRJOX2oWhd-29" edge="1">
          <mxGeometry relative="1" as="geometry" />
        </mxCell>
        <mxCell id="6dSnEPWLA5yRJOX2oWhd-52" style="edgeStyle=orthogonalEdgeStyle;rounded=0;orthogonalLoop=1;jettySize=auto;html=1;entryX=0.5;entryY=0;entryDx=0;entryDy=0;" parent="1" source="6dSnEPWLA5yRJOX2oWhd-42" target="QnXVqV6WdRgewJ8nTJ-i-147" edge="1">
          <mxGeometry relative="1" as="geometry">
            <Array as="points">
              <mxPoint x="700" />
              <mxPoint x="867" />
            </Array>
          </mxGeometry>
        </mxCell>
        <mxCell id="6dSnEPWLA5yRJOX2oWhd-42" value="&lt;font style=&quot;&quot;&gt;&lt;font style=&quot;font-size: 14px;&quot;&gt;&lt;b&gt;Proxmox&lt;br&gt;&lt;/b&gt;&lt;/font&gt;VE&lt;br&gt;&lt;/font&gt;" style="text;html=1;strokeColor=none;fillColor=none;align=center;verticalAlign=middle;whiteSpace=wrap;rounded=0;" parent="1" vertex="1">
          <mxGeometry x="660" y="-266.24" width="80" height="51.25" as="geometry" />
        </mxCell>
        <mxCell id="6dSnEPWLA5yRJOX2oWhd-92" style="edgeStyle=orthogonalEdgeStyle;rounded=0;orthogonalLoop=1;jettySize=auto;html=1;entryX=0.5;entryY=1;entryDx=0;entryDy=0;" parent="1" source="6dSnEPWLA5yRJOX2oWhd-55" target="6dSnEPWLA5yRJOX2oWhd-89" edge="1">
          <mxGeometry relative="1" as="geometry" />
        </mxCell>
        <mxCell id="6dSnEPWLA5yRJOX2oWhd-55" value="" style="rounded=0;whiteSpace=wrap;html=1;" parent="1" vertex="1">
          <mxGeometry x="-10" y="-66.87" width="130" height="140" as="geometry" />
        </mxCell>
        <mxCell id="6dSnEPWLA5yRJOX2oWhd-56" value="" style="rounded=0;whiteSpace=wrap;html=1;" parent="1" vertex="1">
          <mxGeometry x="10" y="-5.620000000000005" width="90" height="60" as="geometry" />
        </mxCell>
        <mxCell id="6dSnEPWLA5yRJOX2oWhd-57" value="activastick-3&lt;br style=&quot;border-color: var(--border-color); text-align: center;&quot;&gt;&lt;span style=&quot;text-align: center;&quot;&gt;192.168.1.23&lt;/span&gt;" style="text;html=1;strokeColor=none;fillColor=none;align=left;verticalAlign=middle;whiteSpace=wrap;rounded=0;fontSize=12;" parent="1" vertex="1">
          <mxGeometry x="10" y="-46.870000000000005" width="80" height="30" as="geometry" />
        </mxCell>
        <mxCell id="6dSnEPWLA5yRJOX2oWhd-60" value="&lt;font style=&quot;&quot;&gt;&lt;font style=&quot;font-size: 14px;&quot;&gt;&lt;b&gt;Proxmox&lt;br&gt;&lt;/b&gt;&lt;/font&gt;VE&lt;br&gt;&lt;/font&gt;" style="text;html=1;strokeColor=none;fillColor=none;align=center;verticalAlign=middle;whiteSpace=wrap;rounded=0;" parent="1" vertex="1">
          <mxGeometry x="15" y="-1.24000000000001" width="80" height="51.25" as="geometry" />
        </mxCell>
        <mxCell id="6dSnEPWLA5yRJOX2oWhd-93" style="edgeStyle=orthogonalEdgeStyle;rounded=0;orthogonalLoop=1;jettySize=auto;html=1;entryX=0.5;entryY=1;entryDx=0;entryDy=0;" parent="1" source="6dSnEPWLA5yRJOX2oWhd-73" target="6dSnEPWLA5yRJOX2oWhd-89" edge="1">
          <mxGeometry relative="1" as="geometry" />
        </mxCell>
        <mxCell id="6dSnEPWLA5yRJOX2oWhd-73" value="" style="rounded=0;whiteSpace=wrap;html=1;" parent="1" vertex="1">
          <mxGeometry x="-260" y="-66.87" width="130" height="140" as="geometry" />
        </mxCell>
        <mxCell id="6dSnEPWLA5yRJOX2oWhd-74" value="" style="rounded=0;whiteSpace=wrap;html=1;" parent="1" vertex="1">
          <mxGeometry x="-240" y="-5.620000000000005" width="90" height="60" as="geometry" />
        </mxCell>
        <mxCell id="6dSnEPWLA5yRJOX2oWhd-75" value="activastick-2&lt;br style=&quot;border-color: var(--border-color); text-align: center;&quot;&gt;&lt;span style=&quot;text-align: center;&quot;&gt;192.168.1.22&lt;/span&gt;" style="text;html=1;strokeColor=none;fillColor=none;align=left;verticalAlign=middle;whiteSpace=wrap;rounded=0;fontSize=12;" parent="1" vertex="1">
          <mxGeometry x="-240" y="-46.870000000000005" width="80" height="30" as="geometry" />
        </mxCell>
        <mxCell id="6dSnEPWLA5yRJOX2oWhd-76" value="&lt;font style=&quot;&quot;&gt;&lt;font style=&quot;font-size: 14px;&quot;&gt;&lt;b&gt;Proxmox&lt;br&gt;&lt;/b&gt;&lt;/font&gt;VE&lt;br&gt;&lt;/font&gt;" style="text;html=1;strokeColor=none;fillColor=none;align=center;verticalAlign=middle;whiteSpace=wrap;rounded=0;" parent="1" vertex="1">
          <mxGeometry x="-235" y="-1.24000000000001" width="80" height="51.25" as="geometry" />
        </mxCell>
        <mxCell id="6dSnEPWLA5yRJOX2oWhd-94" style="edgeStyle=orthogonalEdgeStyle;rounded=0;orthogonalLoop=1;jettySize=auto;html=1;entryX=0.5;entryY=0;entryDx=0;entryDy=0;" parent="1" source="6dSnEPWLA5yRJOX2oWhd-77" target="6dSnEPWLA5yRJOX2oWhd-89" edge="1">
          <mxGeometry relative="1" as="geometry" />
        </mxCell>
        <mxCell id="6dSnEPWLA5yRJOX2oWhd-77" value="" style="rounded=0;whiteSpace=wrap;html=1;" parent="1" vertex="1">
          <mxGeometry x="-260" y="-356.87" width="130" height="140" as="geometry" />
        </mxCell>
        <mxCell id="6dSnEPWLA5yRJOX2oWhd-78" value="" style="rounded=0;whiteSpace=wrap;html=1;" parent="1" vertex="1">
          <mxGeometry x="-240" y="-295.62" width="90" height="60" as="geometry" />
        </mxCell>
        <mxCell id="6dSnEPWLA5yRJOX2oWhd-79" value="activastick-0&lt;br style=&quot;border-color: var(--border-color); text-align: center;&quot;&gt;&lt;span style=&quot;text-align: center;&quot;&gt;192.168.1.20&lt;/span&gt;" style="text;html=1;strokeColor=none;fillColor=none;align=left;verticalAlign=middle;whiteSpace=wrap;rounded=0;fontSize=12;" parent="1" vertex="1">
          <mxGeometry x="-240" y="-336.87" width="90" height="30" as="geometry" />
        </mxCell>
        <mxCell id="6dSnEPWLA5yRJOX2oWhd-80" value="&lt;font style=&quot;&quot;&gt;&lt;font style=&quot;font-size: 14px;&quot;&gt;&lt;b&gt;Proxmox&lt;br&gt;&lt;/b&gt;&lt;/font&gt;VE&lt;br&gt;&lt;/font&gt;" style="text;html=1;strokeColor=none;fillColor=none;align=center;verticalAlign=middle;whiteSpace=wrap;rounded=0;" parent="1" vertex="1">
          <mxGeometry x="-235" y="-291.24" width="80" height="51.25" as="geometry" />
        </mxCell>
        <mxCell id="6dSnEPWLA5yRJOX2oWhd-91" style="edgeStyle=orthogonalEdgeStyle;rounded=0;orthogonalLoop=1;jettySize=auto;html=1;entryX=0.5;entryY=0;entryDx=0;entryDy=0;" parent="1" source="6dSnEPWLA5yRJOX2oWhd-81" target="6dSnEPWLA5yRJOX2oWhd-89" edge="1">
          <mxGeometry relative="1" as="geometry" />
        </mxCell>
        <mxCell id="6dSnEPWLA5yRJOX2oWhd-81" value="" style="rounded=0;whiteSpace=wrap;html=1;" parent="1" vertex="1">
          <mxGeometry x="-10" y="-356.87" width="130" height="140" as="geometry" />
        </mxCell>
        <mxCell id="6dSnEPWLA5yRJOX2oWhd-82" value="" style="rounded=0;whiteSpace=wrap;html=1;" parent="1" vertex="1">
          <mxGeometry x="10" y="-295.62" width="90" height="60" as="geometry" />
        </mxCell>
        <mxCell id="6dSnEPWLA5yRJOX2oWhd-83" value="activastick-1&lt;br style=&quot;border-color: var(--border-color); text-align: center;&quot;&gt;&lt;span style=&quot;text-align: center;&quot;&gt;192.168.1.21&lt;/span&gt;" style="text;html=1;strokeColor=none;fillColor=none;align=left;verticalAlign=middle;whiteSpace=wrap;rounded=0;fontSize=12;" parent="1" vertex="1">
          <mxGeometry x="10" y="-336.87" width="90" height="30" as="geometry" />
        </mxCell>
        <mxCell id="6dSnEPWLA5yRJOX2oWhd-84" value="&lt;font style=&quot;&quot;&gt;&lt;font style=&quot;font-size: 14px;&quot;&gt;&lt;b&gt;Proxmox&lt;br&gt;&lt;/b&gt;&lt;/font&gt;VE&lt;br&gt;&lt;/font&gt;" style="text;html=1;strokeColor=none;fillColor=none;align=center;verticalAlign=middle;whiteSpace=wrap;rounded=0;" parent="1" vertex="1">
          <mxGeometry x="15" y="-291.24" width="80" height="51.25" as="geometry" />
        </mxCell>
        <mxCell id="6dSnEPWLA5yRJOX2oWhd-97" style="edgeStyle=orthogonalEdgeStyle;rounded=0;orthogonalLoop=1;jettySize=auto;html=1;entryX=0.5;entryY=1;entryDx=0;entryDy=0;" parent="1" source="6dSnEPWLA5yRJOX2oWhd-89" target="6dSnEPWLA5yRJOX2oWhd-77" edge="1">
          <mxGeometry relative="1" as="geometry" />
        </mxCell>
        <mxCell id="6dSnEPWLA5yRJOX2oWhd-98" style="edgeStyle=orthogonalEdgeStyle;rounded=0;orthogonalLoop=1;jettySize=auto;html=1;entryX=0.5;entryY=1;entryDx=0;entryDy=0;" parent="1" source="6dSnEPWLA5yRJOX2oWhd-89" target="6dSnEPWLA5yRJOX2oWhd-81" edge="1">
          <mxGeometry relative="1" as="geometry" />
        </mxCell>
        <mxCell id="6dSnEPWLA5yRJOX2oWhd-99" style="edgeStyle=orthogonalEdgeStyle;rounded=0;orthogonalLoop=1;jettySize=auto;html=1;entryX=0.5;entryY=0;entryDx=0;entryDy=0;" parent="1" source="6dSnEPWLA5yRJOX2oWhd-89" target="6dSnEPWLA5yRJOX2oWhd-55" edge="1">
          <mxGeometry relative="1" as="geometry" />
        </mxCell>
        <mxCell id="6dSnEPWLA5yRJOX2oWhd-100" style="edgeStyle=orthogonalEdgeStyle;rounded=0;orthogonalLoop=1;jettySize=auto;html=1;entryX=0.5;entryY=0;entryDx=0;entryDy=0;" parent="1" source="6dSnEPWLA5yRJOX2oWhd-89" target="6dSnEPWLA5yRJOX2oWhd-73" edge="1">
          <mxGeometry relative="1" as="geometry" />
        </mxCell>
        <mxCell id="6dSnEPWLA5yRJOX2oWhd-102" style="edgeStyle=orthogonalEdgeStyle;rounded=0;orthogonalLoop=1;jettySize=auto;html=1;entryX=0;entryY=0.5;entryDx=0;entryDy=0;" parent="1" source="6dSnEPWLA5yRJOX2oWhd-89" target="6dSnEPWLA5yRJOX2oWhd-33" edge="1">
          <mxGeometry relative="1" as="geometry" />
        </mxCell>
        <mxCell id="6dSnEPWLA5yRJOX2oWhd-89" value="&lt;font style=&quot;&quot;&gt;&lt;span style=&quot;font-size: 14px;&quot;&gt;&lt;b&gt;High-Available&lt;br&gt;&lt;/b&gt;&lt;/span&gt;Cluster&lt;br&gt;&lt;/font&gt;" style="text;html=1;strokeColor=none;fillColor=none;align=center;verticalAlign=middle;whiteSpace=wrap;rounded=0;" parent="1" vertex="1">
          <mxGeometry x="-150" y="-158.62" width="160" height="51.25" as="geometry" />
        </mxCell>
        <mxCell id="6dSnEPWLA5yRJOX2oWhd-106" value="BIND9&lt;br&gt;DNS Server" style="shape=parallelogram;perimeter=parallelogramPerimeter;whiteSpace=wrap;html=1;fixedSize=1;" parent="1" vertex="1">
          <mxGeometry x="150" y="-162" width="120" height="60" as="geometry" />
        </mxCell>
      </root>
    </mxGraphModel>
  </diagram>
</mxfile>
